<?xml version="1.0" encoding="utf-8"?>
<!-- Generator: Adobe Illustrator 24.1.2, SVG Export Plug-In . SVG Version: 6.00 Build 0)  -->
<svg version="1.1" id="Layer_1" xmlns="http://www.w3.org/2000/svg" xmlns:xlink="http://www.w3.org/1999/xlink" x="0px" y="0px"
	 viewBox="0 0 464.3 100" style="enable-background:new 0 0 464.3 100;" xml:space="preserve">
<style type="text/css">
	.st0{fill:#FFFFFF;}
</style>
<g>
	<g>
		<polygon class="st0" points="389.6,15.3 389.6,32.5 376.4,41.1 376.4,15.3 		"/>
		<path class="st0" d="M385.7,66.3c2.4,2.4,3.9,5.7,3.9,9.3v7.7h-13.1V62.5C380.1,62.5,383.4,64,385.7,66.3z"/>
		<path class="st0" d="M457.3,52c2.6,2.9,4.1,6.6,4.1,10.5v20.8h-13.1V62.5h0c0-2.2-1.3-4-3.3-5.1c0,0,0,0,0,0
			c-0.3-0.2-0.6-0.3-1-0.5v0.5h-17.1v26h-13.1v-26h-50.4l26.2-24.9v12.6h51.7c0.9,0,1.8,0,2.7,0.2v-0.2c3.8,0,7-4.7,7-8.7
			s-3.1-8.7-7-8.7v0h-17.1v2.6c0,5.1-4.1,9.2-9.2,9.2h-3.9V15.3H444c0.4,0,0.8,0,1.2,0c10.5,0.6,18.7,9.8,18.7,21
			C463.9,42.5,461.4,48.1,457.3,52z"/>
		<path class="st0" d="M444,45.2c-0.9-0.1-1.8-0.2-2.7-0.2h2.7V45.2z"/>
		<path class="st0" d="M445,57.4h-1v-0.5C444.3,57,444.6,57.2,445,57.4C445,57.3,445,57.4,445,57.4z"/>
		<path class="st0" d="M444,56.9v0.5c0.3,0,0.7,0,1,0C444.6,57.2,444.3,57,444,56.9z"/>
	</g>
	<g>
		<g>
			<path class="st0" d="M150.6,83.6c-0.6,0.1-1.2,0.1-1.8,0.1s-1.2,0-1.8,0c-5.1,0-9.5-0.9-13.4-2.7c-3.8-1.8-7-4.3-9.5-7.4
				c-2.6-3.1-4.4-6.8-5.7-11s-1.9-8.7-1.9-13.6c0-4.3,0.6-8.5,1.7-12.7c1.1-4.1,2.9-7.8,5.2-11.1s5.4-5.8,9.1-7.8s8.1-3,13.2-3
				c1.4,0,2.9,0.1,4.4,0.4s3,0.7,4.4,1.1c1.4,0.5,2.8,0.9,4.1,1.4s2.4,0.9,3.3,1.3c0.7,0.3,1.4,0.6,1.9,0.8c0.6,0.2,1,0.3,1.2,0.3
				c0.5,0,0.8-0.2,1.1-0.5c0.3-0.3,0.5-0.7,0.7-1.2c0.2-0.5,0.3-1,0.3-1.5c0.1-0.5,0.1-1,0.1-1.4h2.6v22.3H168
				c-0.2-2.1-0.6-4.3-1.3-6.7c-0.7-2.4-1.6-4.5-2.9-6.5s-2.8-3.6-4.8-4.9c-1.9-1.3-4.3-2-7-2c-3.9,0-7.2,1.1-9.9,3.2s-4.9,4.8-6.6,8
				c-1.7,3.2-2.9,6.5-3.6,10.1c-0.7,3.6-1.1,6.8-1.1,9.7s0.3,6.2,1,9.9c0.7,3.8,1.8,7.3,3.5,10.7c1.6,3.4,3.8,6.3,6.5,8.6
				c2.7,2.3,6.1,3.5,10.2,3.5c2.4,0,4.6-0.7,6.5-2.2c1.9-1.5,3.5-3.3,4.9-5.4c1.4-2.2,2.5-4.5,3.3-6.9c0.9-2.5,1.4-4.7,1.8-6.8h2
				v23.2h-2.1c0-0.4-0.1-0.8-0.1-1.4c-0.1-0.5-0.2-1-0.3-1.5c-0.1-0.5-0.3-0.9-0.6-1.2c-0.3-0.3-0.6-0.5-1-0.5
				c-0.2,0-0.4,0.1-0.7,0.2c-0.3,0.2-0.6,0.3-0.9,0.4l-0.5,0.2c-1.1,0.7-2.7,1.4-4.7,2.3C157.3,82.7,154.4,83.3,150.6,83.6z"/>
			<path class="st0" d="M178.3,16.8c-0.3,0-0.6,0-1.2,0c-0.5,0-0.9,0-1.3,0c-0.3-0.1-0.7-0.1-1.2-0.1c-0.6,0-1,0-1.3,0v-1.4h26.4
				v1.4h-8.2l0.1,64.4l8.7,0.2c2.7,0,5.1-0.6,7.1-1.7c2-1.1,3.7-2.7,5.1-4.8c1.4-2,2.4-4.4,3.1-7.1c0.7-2.7,1.1-5.6,1.2-8.8h2.1
				v24.4h-45.3v-1.9h4.8L178.3,16.8z"/>
			<path class="st0" d="M244.5,83.3h-23v-1.7h4.9L226.3,17c-0.3,0-0.7,0-1.1,0c-0.4,0-0.8,0-1.2-0.1c-0.3,0-0.7,0-1.1,0
				c-0.4,0-0.8,0-1,0v-1.5h22.7v1.5h-5.2l0.2,64.6c0.3,0,0.6,0,1.2,0.1c0.5,0,0.9,0.1,1.3,0.1c0.3,0.1,0.7,0.1,1.2,0.1s1,0,1.3,0
				L244.5,83.3L244.5,83.3z"/>
			<path class="st0" d="M280.3,83.6c-0.6,0.1-1.2,0.1-1.8,0.1s-1.2,0-1.8,0c-5.1,0-9.5-0.9-13.4-2.7c-3.8-1.8-7-4.3-9.5-7.4
				c-2.6-3.1-4.4-6.8-5.7-11c-1.2-4.2-1.9-8.7-1.9-13.6c0-4.3,0.6-8.5,1.7-12.7c1.1-4.1,2.9-7.8,5.2-11.1s5.4-5.8,9.1-7.8
				s8.1-3,13.2-3c1.4,0,2.9,0.1,4.5,0.4s3,0.7,4.5,1.1c1.4,0.5,2.8,0.9,4.1,1.4s2.4,0.9,3.3,1.3c0.7,0.3,1.4,0.6,1.9,0.8
				c0.5,0.2,1,0.3,1.2,0.3c0.5,0,0.8-0.2,1.1-0.5c0.3-0.3,0.5-0.7,0.7-1.2c0.2-0.5,0.3-1,0.3-1.5c0.1-0.5,0.1-1,0.1-1.4h2.6v22.3
				h-2.1c-0.2-2.1-0.6-4.3-1.3-6.7s-1.6-4.5-2.9-6.5c-1.2-2-2.8-3.6-4.8-4.9c-1.9-1.3-4.3-2-7-2c-3.9,0-7.2,1.1-9.9,3.2
				s-4.9,4.8-6.6,8c-1.7,3.2-2.9,6.5-3.6,10.1c-0.7,3.6-1.1,6.8-1.1,9.7s0.3,6.2,1,9.9c0.7,3.8,1.8,7.3,3.5,10.7
				c1.6,3.4,3.8,6.3,6.5,8.6c2.7,2.3,6.1,3.5,10.2,3.5c2.4,0,4.6-0.7,6.5-2.2c1.9-1.5,3.5-3.3,4.9-5.4c1.4-2.2,2.5-4.5,3.3-6.9
				c0.9-2.5,1.4-4.7,1.8-6.8h2v23.2H298c0-0.4,0-0.8-0.1-1.4c-0.1-0.5-0.2-1-0.3-1.5s-0.3-0.9-0.6-1.2c-0.3-0.3-0.6-0.5-1-0.5
				c-0.2,0-0.4,0.1-0.7,0.2c-0.3,0.2-0.6,0.3-0.9,0.4l-0.5,0.2c-1.1,0.7-2.7,1.4-4.7,2.3C286.9,82.7,284,83.3,280.3,83.6z"/>
			<path class="st0" d="M329.1,83.3h-25.4v-1.5h6.4L310,17.2c-0.3,0-0.8,0-1.4,0c-0.6,0-1.1,0-1.5,0c-0.3-0.1-0.8-0.1-1.5-0.1
				s-1.2,0-1.5,0v-1.8h25.3V17h-6.5l0.1,30.8l26.2-27.5c2-2.3,1.2-3.4-2.1-3.4h-4.7v-1.7h20.3v1.7h-2.4c-1.4,0-2.8,0.3-4,1
				c-1.2,0.6-2.6,1.7-4.2,3l-19.2,20.5L360,81.5c0.3,0,0.7,0,1.1,0.1c0.4,0,0.8,0.1,1.2,0.1h2.1v1.7h-26.8v-1.7h6.6l-0.1-0.7
				l-20.3-31.4l-1.1,1.4l0.1,30.7c0.3,0,0.8,0,1.4,0.1c0.6,0,1.2,0.1,1.7,0.1c0.3,0.1,0.8,0.1,1.5,0.1c0.7,0,1.2,0,1.5,0L329.1,83.3
				L329.1,83.3z"/>
		</g>
	</g>
</g>
<g>
	<g>
		<path class="st0" d="M82.2,58.1c0,0.1,0,0.2,0,0.3l0.3-0.3L82.2,58.1z M73.6,55.6l3.6,3.6l0,0l0,0L73.6,55.6L73.6,55.6z M76,64.6
			l0.4-0.4c-0.1,0-0.2,0-0.3-0.1L76,64.6z M45.5,83.7L11.8,50l33.7-33.7l12.4,12.4L76,35.4L45.5,4.9L0.3,50l45.1,45.1l15.8-15.8
			l-3-8.4L45.5,83.7z"/>
	</g>
	<polygon class="st0" points="20.2,50.1 45.5,79.4 16.1,50 45.5,20.6 	"/>
	<g>
		<polygon class="st0" points="49.3,31 70.4,90 77.2,59.1 		"/>
		<polygon class="st0" points="49.3,31 108.1,52.7 77.2,59.2 		"/>
	</g>
</g>
</svg>
