<?xml version="1.0" encoding="utf-8"?>
<!-- Generator: Adobe Illustrator 24.1.2, SVG Export Plug-In . SVG Version: 6.00 Build 0)  -->
<svg version="1.1" id="Layer_1" xmlns="http://www.w3.org/2000/svg" xmlns:xlink="http://www.w3.org/1999/xlink" x="0px" y="0px"
	 viewBox="0 0 464.25 100" style="enable-background:new 0 0 464.25 100;" xml:space="preserve">
<style type="text/css">
	.st0{fill:#4372B8;}
	.st1{fill:#19355F;}
</style>
<g>
	<g>
		<polygon class="st0" points="389.58,15.34 389.58,32.45 376.43,41.11 376.43,15.34 		"/>
		<path class="st0" d="M385.73,66.34c2.38,2.38,3.85,5.66,3.85,9.3v7.7h-13.15V62.49C380.06,62.49,383.35,63.96,385.73,66.34z"/>
		<path class="st0" d="M457.32,51.96c2.58,2.92,4.11,6.57,4.11,10.53v20.85h-13.15V62.49h0.01c0-2.16-1.31-4.05-3.27-5.13
			c-0.01-0.01-0.03-0.02-0.04-0.03c-0.32-0.17-0.65-0.32-1-0.45v0.48h-17.08v25.98h-13.15V57.36h-50.39l26.23-24.91v12.62h51.66
			c0.92,0,1.83,0.05,2.73,0.16v-0.16c3.84,0,6.96-4.67,6.96-8.72s-3.12-8.7-6.96-8.7v-0.01h-17.08v2.65c0,5.09-4.12,9.21-9.21,9.21
			h-3.94V15.34h30.23c0.4,0,0.8,0.01,1.2,0.04c10.45,0.65,18.74,9.79,18.74,20.97C463.91,42.54,461.36,48.11,457.32,51.96z"/>
		<path class="st0" d="M443.97,45.22c-0.89-0.11-1.8-0.16-2.73-0.16h2.73V45.22z"/>
		<path class="st0" d="M445.01,57.36h-1.04v-0.48c0.35,0.13,0.68,0.28,1,0.45C444.98,57.34,445,57.35,445.01,57.36z"/>
		<path class="st0" d="M443.97,56.88v0.48c0.33,0,0.67-0.01,1-0.03C444.65,57.16,444.32,57.01,443.97,56.88z"/>
	</g>
	<g>
		<g>
			<path class="st1" d="M150.64,83.58c-0.59,0.06-1.17,0.1-1.76,0.1s-1.17,0-1.76,0c-5.09,0-9.54-0.91-13.36-2.74
				c-3.82-1.83-7-4.31-9.54-7.44c-2.55-3.13-4.44-6.8-5.68-11.01c-1.24-4.21-1.86-8.73-1.86-13.56c0-4.31,0.57-8.53,1.71-12.68
				c1.14-4.14,2.89-7.83,5.24-11.06c2.35-3.23,5.37-5.84,9.06-7.83c3.69-1.99,8.08-2.99,13.17-2.99c1.43,0,2.92,0.15,4.45,0.44
				c1.53,0.29,3.02,0.67,4.45,1.13c1.44,0.46,2.79,0.93,4.06,1.42c1.27,0.49,2.36,0.93,3.28,1.32c0.72,0.33,1.35,0.6,1.91,0.83
				c0.55,0.23,0.96,0.34,1.22,0.34c0.46,0,0.83-0.16,1.13-0.49c0.29-0.33,0.52-0.73,0.69-1.22c0.16-0.49,0.28-0.99,0.34-1.52
				c0.06-0.52,0.1-0.98,0.1-1.37h2.64v22.32h-2.15c-0.2-2.09-0.64-4.31-1.32-6.66c-0.69-2.35-1.65-4.5-2.89-6.46
				c-1.24-1.96-2.82-3.59-4.75-4.9c-1.93-1.3-4.26-1.96-7-1.96c-3.92,0-7.23,1.08-9.94,3.23c-2.71,2.15-4.89,4.81-6.56,7.98
				c-1.66,3.17-2.86,6.54-3.57,10.13c-0.72,3.59-1.08,6.82-1.08,9.69c0,2.87,0.34,6.18,1.03,9.94c0.69,3.75,1.84,7.33,3.48,10.72
				c1.63,3.39,3.8,6.27,6.51,8.61c2.71,2.35,6.12,3.52,10.23,3.52c2.41,0,4.57-0.73,6.46-2.2c1.89-1.47,3.52-3.28,4.9-5.43
				c1.37-2.15,2.48-4.47,3.33-6.95c0.85-2.48,1.43-4.73,1.76-6.75h1.96v23.2h-2.15c0-0.39-0.05-0.85-0.15-1.37
				c-0.1-0.52-0.21-1.03-0.34-1.52c-0.13-0.49-0.34-0.9-0.64-1.22c-0.29-0.33-0.64-0.49-1.03-0.49c-0.2,0-0.44,0.08-0.73,0.24
				c-0.29,0.16-0.6,0.31-0.93,0.44l-0.49,0.2c-1.11,0.65-2.68,1.4-4.7,2.25C157.33,82.66,154.42,83.25,150.64,83.58z"/>
			<path class="st1" d="M178.34,16.81c-0.26,0-0.65-0.02-1.17-0.05c-0.52-0.03-0.95-0.05-1.27-0.05c-0.26-0.06-0.67-0.1-1.22-0.1
				c-0.56,0-1,0-1.32,0v-1.37h26.43v1.37h-8.22l0.1,64.42l8.71,0.2c2.74,0,5.12-0.57,7.15-1.71c2.02-1.14,3.72-2.72,5.09-4.75
				c1.37-2.02,2.4-4.39,3.08-7.1c0.69-2.71,1.09-5.63,1.22-8.76h2.06v24.38h-45.33v-1.86h4.8L178.34,16.81z"/>
			<path class="st1" d="M244.52,83.28h-23.01v-1.66h4.89l-0.1-64.61c-0.33,0-0.7,0-1.13,0c-0.43,0-0.83-0.03-1.22-0.1
				c-0.33,0-0.7-0.02-1.13-0.05c-0.42-0.03-0.77-0.05-1.03-0.05v-1.47h22.71v1.47h-5.19l0.2,64.61c0.26,0,0.65,0.02,1.18,0.05
				c0.52,0.03,0.95,0.05,1.27,0.05c0.26,0.07,0.67,0.1,1.22,0.1s0.99,0,1.32,0V83.28z"/>
			<path class="st1" d="M280.25,83.58c-0.59,0.06-1.17,0.1-1.76,0.1c-0.59,0-1.17,0-1.76,0c-5.09,0-9.54-0.91-13.36-2.74
				c-3.82-1.83-7-4.31-9.54-7.44c-2.55-3.13-4.44-6.8-5.68-11.01c-1.24-4.21-1.86-8.73-1.86-13.56c0-4.31,0.57-8.53,1.71-12.68
				c1.14-4.14,2.89-7.83,5.24-11.06c2.35-3.23,5.37-5.84,9.06-7.83c3.69-1.99,8.08-2.99,13.17-2.99c1.43,0,2.92,0.15,4.45,0.44
				c1.53,0.29,3.02,0.67,4.45,1.13c1.43,0.46,2.79,0.93,4.06,1.42c1.27,0.49,2.37,0.93,3.28,1.32c0.72,0.33,1.35,0.6,1.91,0.83
				c0.55,0.23,0.96,0.34,1.22,0.34c0.46,0,0.83-0.16,1.13-0.49c0.29-0.33,0.52-0.73,0.69-1.22c0.16-0.49,0.28-0.99,0.34-1.52
				c0.06-0.52,0.1-0.98,0.1-1.37h2.64v22.32h-2.15c-0.2-2.09-0.64-4.31-1.32-6.66s-1.65-4.5-2.89-6.46
				c-1.24-1.96-2.82-3.59-4.75-4.9c-1.93-1.3-4.26-1.96-7-1.96c-3.92,0-7.23,1.08-9.94,3.23s-4.89,4.81-6.56,7.98
				c-1.66,3.17-2.86,6.54-3.57,10.13c-0.72,3.59-1.08,6.82-1.08,9.69c0,2.87,0.34,6.18,1.03,9.94c0.69,3.75,1.84,7.33,3.48,10.72
				c1.63,3.39,3.8,6.27,6.51,8.61c2.71,2.35,6.12,3.52,10.23,3.52c2.41,0,4.57-0.73,6.46-2.2c1.89-1.47,3.52-3.28,4.89-5.43
				c1.37-2.15,2.48-4.47,3.33-6.95c0.85-2.48,1.43-4.73,1.76-6.75h1.96v23.2h-2.15c0-0.39-0.05-0.85-0.15-1.37
				c-0.1-0.52-0.21-1.03-0.34-1.52c-0.13-0.49-0.34-0.9-0.64-1.22c-0.29-0.33-0.64-0.49-1.03-0.49c-0.2,0-0.44,0.08-0.73,0.24
				c-0.29,0.16-0.6,0.31-0.93,0.44l-0.49,0.2c-1.11,0.65-2.68,1.4-4.7,2.25C286.94,82.66,284.04,83.25,280.25,83.58z"/>
			<path class="st1" d="M329.1,83.28h-25.35v-1.47h6.36l-0.1-64.61c-0.33,0-0.8-0.02-1.42-0.05c-0.62-0.03-1.13-0.05-1.52-0.05
				c-0.33-0.06-0.83-0.1-1.52-0.1c-0.69,0-1.19,0-1.52,0v-1.76h25.26v1.76h-6.46l0.1,30.84l26.24-27.51
				c1.96-2.28,1.24-3.43-2.15-3.43h-4.7v-1.66h20.26v1.66h-2.35c-1.44,0-2.76,0.33-3.96,0.98c-1.21,0.65-2.59,1.66-4.16,3.03
				l-19.19,20.46l27.12,40.14c0.33,0,0.7,0.02,1.13,0.05c0.42,0.03,0.83,0.05,1.22,0.05h2.15v1.66h-26.82v-1.66h6.56l-0.1-0.69
				l-20.26-31.42l-1.08,1.37l0.1,30.74c0.33,0,0.8,0.02,1.42,0.05c0.62,0.03,1.19,0.05,1.71,0.05c0.33,0.07,0.83,0.1,1.52,0.1
				c0.68,0,1.19,0,1.52,0V83.28z"/>
		</g>
	</g>
</g>
<g>
	<g>
		<path class="st1" d="M82.16,58.1c0.02,0.08,0.03,0.17,0.04,0.26l0.35-0.34L82.16,58.1z M73.6,55.55l3.56,3.61l0.04-0.01l0.01-0.03
			l-3.57-3.61L73.6,55.55z M76,64.58l0.43-0.43c-0.11-0.01-0.21-0.03-0.32-0.06L76,64.58z M45.45,83.68L11.78,50l33.68-33.69
			l12.42,12.43l18.13,6.69L45.45,4.88L0.34,50l45.11,45.11l15.76-15.76l-3-8.43L45.45,83.68z"/>
	</g>
	<polygon class="st0" points="20.16,50.08 45.45,79.37 16.09,50 45.45,20.64 	"/>
	<g>
		<polygon class="st1" points="49.33,30.97 70.37,89.96 77.21,59.11 		"/>
		<polygon class="st0" points="49.33,30.97 108.08,52.65 77.16,59.16 		"/>
	</g>
</g>
</svg>
