<?xml version="1.0" encoding="utf-8"?>
<!-- Generator: Adobe Illustrator 24.1.2, SVG Export Plug-In . SVG Version: 6.00 Build 0)  -->
<svg version="1.1" id="Layer_1" xmlns="http://www.w3.org/2000/svg" xmlns:xlink="http://www.w3.org/1999/xlink" x="0px" y="0px"
	 viewBox="0 0 107.7 90.2" style="enable-background:new 0 0 107.7 90.2;" xml:space="preserve">
<style type="text/css">
	.st0{fill:#19355F;}
	.st1{fill:#4372B8;}
</style>
<g>
	<g>
		<path class="st0" d="M84.8,54.1c0,0.1,0,0.2,0,0.3l0.4-0.4L84.8,54.1z M75.4,51.3l3.9,4l0,0l0,0L75.4,51.3L75.4,51.3z M78,61.3
			l0.5-0.5c-0.1,0-0.2,0-0.4-0.1L78,61.3z M44.2,82.4L6.8,45.1L44.2,7.8l13.8,13.8L78,29L44.2-4.9l-50,50l50,50l17.5-17.5l-3.3-9.3
			L44.2,82.4z"/>
	</g>
	<polygon class="st1" points="16.1,45.2 44.2,77.7 11.6,45.1 44.2,12.6 	"/>
	<g>
		<polygon class="st0" points="48.5,24 71.8,89.4 79.4,55.2 		"/>
		<polygon class="st1" points="48.5,24 113.6,48.1 79.3,55.3 		"/>
	</g>
</g>
</svg>
